<svg width="547" height="451" viewBox="0 0 547 451" fill="none" xmlns="http://www.w3.org/2000/svg">
<path d="M292.943 384.459C292.943 421.208 321.909 451 357.642 451C393.374 451 422.341 421.208 422.341 384.459C422.341 347.709 393.374 317.918 357.642 317.918C321.909 317.918 292.943 347.709 292.943 384.459Z" fill="#393939"/>
<path d="M292.943 66.541C292.943 103.291 321.909 133.082 357.642 133.082C393.374 133.082 422.341 103.291 422.341 66.541C422.341 29.7914 393.374 -1.30222e-06 357.642 -2.9086e-06C321.909 -4.51497e-06 292.943 29.7914 292.943 66.541Z" fill="#95D0D5"/>
<path d="M-0.00023171 236.59C-0.000233272 273.339 28.9665 303.131 64.6989 303.131C100.431 303.131 129.398 273.339 129.398 236.59C129.398 199.84 100.431 170.049 64.6989 170.049C28.9666 170.049 -0.000230148 199.84 -0.00023171 236.59Z" fill="#FD7E50"/>
<path d="M567.914 451C550.921 451 534.095 447.558 518.395 440.87C502.696 434.182 488.431 424.379 476.416 412.021C464.4 399.663 454.869 384.992 448.366 368.846C441.863 352.7 438.516 335.395 438.516 317.918L567.914 317.918L567.914 451Z" fill="#FD7E50"/>
<path d="M438.516 317.918C438.516 300.442 441.863 283.136 448.366 266.99C454.869 250.844 464.4 236.173 476.416 223.815C488.431 211.457 502.696 201.654 518.395 194.966C534.095 188.278 550.921 184.836 567.914 184.836L567.914 317.918L438.516 317.918Z" fill="#95D0D5"/>
<path d="M567.914 147.869C533.596 147.869 500.683 133.848 476.416 108.89C452.149 83.9322 438.516 50.0823 438.516 14.7868L567.914 14.7867L567.914 147.869Z" fill="#71357C"/>
<path d="M422.341 317.918C405.348 317.918 388.522 314.476 372.822 307.788C357.123 301.1 342.858 291.297 330.843 278.939C318.827 266.582 309.295 251.911 302.793 235.764C296.29 219.618 292.943 202.313 292.943 184.836L422.341 184.836L422.341 317.918Z" fill="#F35D5D"/>
<path d="M-0.000249797 451C-0.000249054 433.523 3.34675 416.218 9.84962 400.072C16.3525 383.925 25.8839 369.255 37.8996 356.897C49.9154 344.539 64.1801 334.736 79.8794 328.048C95.5787 321.36 112.405 317.918 129.398 317.918L129.398 451L-0.000249797 451Z" fill="#95D0D5"/>
<path d="M129.398 18.4836C146.391 18.4836 163.217 21.9259 178.916 28.6139C194.616 35.3019 208.88 45.1046 220.896 57.4624C232.912 69.8202 242.443 84.491 248.946 100.637C255.449 116.784 258.796 134.089 258.796 151.566L129.398 151.566L129.398 18.4836Z" fill="#F35D5D"/>
<path d="M-0.000249797 151.566C-0.000249054 134.089 3.34675 116.784 9.84962 100.638C16.3525 84.4913 25.8839 69.8205 37.8996 57.4627C49.9154 45.1049 64.1801 35.3021 79.8794 28.6141C95.5787 21.9261 112.405 18.4839 129.398 18.4839L129.398 151.566L-0.000249797 151.566Z" fill="#393939"/>
<path d="M273.174 451C256.181 451 239.355 447.558 223.655 440.87C207.956 434.182 193.691 424.379 181.675 412.021C169.66 399.663 160.128 384.993 153.625 368.846C147.123 352.7 143.776 335.395 143.776 317.918C143.776 300.442 147.123 283.136 153.626 266.99C160.128 250.844 169.66 236.173 181.676 223.815C193.691 211.457 207.956 201.654 223.655 194.966C239.355 188.278 256.181 184.836 273.174 184.836L273.174 317.918L273.174 451Z" fill="#71357C"/>
</svg>
