<svg width="700" height="646" viewBox="0 0 700 646" fill="none" xmlns="http://www.w3.org/2000/svg">
<path d="M345.771 559.777C345.771 607.042 383.026 645.359 428.984 645.359C474.941 645.359 512.197 607.042 512.197 559.777C512.197 512.511 474.941 474.195 428.984 474.195C383.026 474.195 345.771 512.511 345.771 559.777Z" fill="#393939"/>
<path d="M345.771 150.885C345.771 198.15 383.026 236.467 428.984 236.467C474.941 236.467 512.197 198.15 512.197 150.885C512.197 103.619 474.941 65.3027 428.984 65.3027C383.026 65.3027 345.771 103.619 345.771 150.885Z" fill="#95D0D5"/>
<path d="M-30.9998 369.594C-30.9998 416.86 6.25594 455.176 52.2133 455.176C98.1706 455.176 135.426 416.86 135.426 369.594C135.426 322.329 98.1706 284.012 52.2133 284.012C6.25595 284.012 -30.9998 322.329 -30.9998 369.594Z" fill="#FD7E50"/>
<path d="M699.426 645.359C677.571 645.359 655.93 640.932 635.738 632.33C615.546 623.728 597.199 611.12 581.745 595.226C566.291 579.332 554.032 560.463 545.669 539.696C537.305 518.93 533 496.672 533 474.195L699.426 474.195L699.426 645.359Z" fill="#FD7E50"/>
<path d="M533 474.195C533 451.717 537.305 429.46 545.669 408.693C554.032 387.927 566.291 369.058 581.745 353.164C597.199 337.269 615.546 324.662 635.738 316.06C655.93 307.458 677.571 303.031 699.426 303.031L699.426 474.195L533 474.195Z" fill="#95D0D5"/>
<path d="M699.426 255.485C655.287 255.485 612.956 237.452 581.745 205.352C550.534 173.253 533 129.716 533 84.3208L699.426 84.3208L699.426 255.485Z" fill="#71357C"/>
<path d="M512.197 474.195C490.341 474.195 468.7 469.768 448.508 461.166C428.317 452.564 409.97 439.956 394.516 424.062C379.062 408.168 366.803 389.299 358.439 368.532C350.075 347.766 345.771 325.508 345.771 303.031L512.197 303.031L512.197 474.195Z" fill="#F35D5D"/>
<path d="M-30.9999 645.359C-30.9999 622.881 -26.6951 600.624 -18.3314 579.857C-9.9677 559.091 2.29117 540.222 17.7453 524.328C33.1994 508.434 51.5461 495.826 71.7378 487.224C91.9296 478.622 113.571 474.195 135.426 474.195L135.426 645.359L-30.9999 645.359Z" fill="#95D0D5"/>
<path d="M135.426 89.0756C157.282 89.0756 178.923 93.503 199.115 102.105C219.307 110.707 237.653 123.314 253.108 139.208C268.562 155.103 280.82 173.972 289.184 194.738C297.548 215.505 301.853 237.762 301.853 260.24L135.426 260.24L135.426 89.0756Z" fill="#F35D5D"/>
<path d="M-30.9999 260.24C-30.9999 237.762 -26.6951 215.505 -18.3314 194.738C-9.9677 173.971 2.29117 155.103 17.7453 139.208C33.1994 123.314 51.5461 110.707 71.7378 102.105C91.9296 93.503 113.571 89.0757 135.426 89.0757L135.426 260.24L-30.9999 260.24Z" fill="#393939"/>
<path d="M320.344 645.359C298.489 645.359 276.848 640.932 256.656 632.33C236.464 623.728 218.117 611.12 202.663 595.226C187.209 579.332 174.95 560.463 166.587 539.696C158.223 518.93 153.918 496.672 153.918 474.195C153.918 451.717 158.223 429.46 166.587 408.693C174.95 387.927 187.209 369.058 202.663 353.164C218.117 337.269 236.464 324.662 256.656 316.06C276.848 307.458 298.489 303.031 320.344 303.031L320.344 474.195L320.344 645.359Z" fill="#71357C"/>
<rect x="190" y="0.907715" width="347" height="590.135" rx="24" fill="#292D32"/>
</svg>
